<svg width="217" height="60" viewBox="0 0 217 60" fill="none" xmlns="http://www.w3.org/2000/svg">
<path d="M38.313 3C38.5458 3.0958 38.6726 3.23402 38.8444 3.41272C39.1179 3.69346 39.4275 3.93751 39.7286 4.18889C40.1711 4.55898 40.6048 4.93515 41.029 5.32532C41.2499 5.52717 41.4759 5.71817 41.7117 5.90339C42.0703 6.18604 42.4017 6.49232 42.7353 6.80258C42.9782 7.02734 43.2243 7.24219 43.4853 7.44685C43.8416 7.72622 44.1697 8.03012 44.5005 8.33774C44.7434 8.56248 44.9894 8.77733 45.2504 8.98198C45.6067 9.26134 45.9348 9.56525 46.2656 9.87286C46.5085 10.0976 46.7546 10.3125 47.0155 10.5171C47.3718 10.7965 47.6999 11.1004 48.0307 11.408C48.2736 11.6327 48.5197 11.8476 48.7807 12.0522C49.1369 12.3316 49.4651 12.6355 49.7958 12.9431C50.0387 13.1679 50.2848 13.3827 50.5458 13.5874C50.902 13.8667 51.2302 14.1706 51.5609 14.4782C51.8038 14.703 52.0499 14.9178 52.3109 15.1225C52.6671 15.4018 52.9953 15.7057 53.326 16.0134C53.569 16.2381 53.815 16.4529 54.076 16.6576C54.4323 16.937 54.7604 17.2409 55.0912 17.5485C55.3896 17.8246 55.6986 18.081 56.0191 18.3322C56.3071 18.5692 56.5783 18.8232 56.8491 19.0789C56.889 19.1163 56.9289 19.1536 56.9701 19.1921C57.0087 19.2291 57.0473 19.2662 57.0871 19.3044C57.2296 19.4331 57.2296 19.4331 57.4042 19.5209C57.6495 19.6656 57.8631 19.8059 57.9508 20.0865C58.0162 20.4811 57.9998 20.8815 57.9934 21.2799C57.9937 21.4167 57.9943 21.5534 57.9951 21.6902C57.9967 22.0657 57.9939 22.4411 57.9905 22.8166C57.9876 23.2216 57.9886 23.6266 57.9891 24.0316C57.9895 24.7333 57.9874 25.4349 57.9835 26.1365C57.9795 26.8723 57.9769 27.6081 57.9762 28.3438C57.9761 28.3896 57.9761 28.4354 57.976 28.4825C57.9758 28.715 57.9756 28.9474 57.9754 29.1798C57.974 30.8257 57.9694 32.4715 57.963 34.1173C57.9567 35.7161 57.9519 37.3149 57.949 38.9137C57.9489 39.0143 57.9487 39.1149 57.9485 39.2154C57.9471 39.994 57.9458 40.7725 57.9445 41.5511C57.938 45.3674 57.9244 49.1837 57.9118 53C51.9076 53 45.9035 53 39.7175 53C39.7175 45.8637 39.7175 38.7273 39.7175 31.3748C38.2612 31.3748 36.805 31.3748 35.3047 31.3748C35.3047 38.5111 35.3047 45.6474 35.3047 53C33.7812 53 32.2578 53 30.6882 53C30.6882 48.4627 30.6882 43.9254 30.6882 39.2506C29.232 39.2506 27.7757 39.2506 26.2754 39.2506C26.2754 43.7879 26.2754 48.3252 26.2754 53C20.2713 53 14.2672 53 8.0811 53C8.05646 46.3552 8.05646 46.3552 8.05126 43.5833C8.05007 42.9488 8.04883 42.3143 8.04754 41.6798C8.04737 41.6003 8.04721 41.5208 8.04705 41.4388C8.04439 40.1545 8.03957 38.8702 8.03396 37.5859C8.02825 36.2682 8.02485 34.9504 8.02361 33.6326C8.02277 32.8193 8.02012 32.006 8.01516 31.1926C8.01193 30.6351 8.01095 30.0776 8.01175 29.5201C8.01214 29.1983 8.01154 28.8766 8.00826 28.5548C8.00529 28.2601 8.00514 27.9655 8.00723 27.6709C8.00749 27.5643 8.00671 27.4578 8.00479 27.3512C7.99132 26.5559 7.99132 26.5559 8.21441 26.2571C8.36721 26.1215 8.51896 26.0105 8.6921 25.9017C8.76494 25.8457 8.83732 25.7891 8.90903 25.7317C8.97466 25.6832 9.0403 25.6347 9.10792 25.5847C9.43566 25.3403 9.75899 25.0913 10.0796 24.838C10.4092 24.5777 10.7398 24.3187 11.0725 24.0621C11.1115 24.032 11.1505 24.0018 11.1908 23.9708C11.3857 23.8205 11.5808 23.6705 11.776 23.5206C12.2013 23.1935 12.623 22.8627 13.0413 22.5269C13.4376 22.2088 13.8389 21.8986 14.2455 21.5933C14.8252 21.1579 15.3954 20.7112 15.9605 20.2576C16.3568 19.9395 16.7581 19.6293 17.1647 19.324C17.7444 18.8886 18.3147 18.4419 18.8797 17.9883C19.2043 17.7277 19.5309 17.4706 19.8641 17.2208C20.1814 16.9827 20.4949 16.7406 20.8061 16.4949C21.33 16.0812 21.8583 15.673 22.3873 15.2657C22.8365 14.9197 23.2844 14.5723 23.7296 14.2214C24.2523 13.8094 24.7791 13.4025 25.3066 12.9964C25.7557 12.6504 26.2036 12.303 26.6488 11.9521C27.2095 11.5101 27.7746 11.0738 28.341 10.6389C28.7663 10.3118 29.188 9.98104 29.6062 9.64525C30.0026 9.32714 30.4039 9.01694 30.8104 8.71161C31.3902 8.27624 31.9604 7.82953 32.5254 7.37594C32.8501 7.11535 33.1766 6.85825 33.5098 6.60838C33.8272 6.37034 34.1406 6.12825 34.4518 5.88253C34.9758 5.46883 35.504 5.06066 36.0331 4.6533C36.54 4.26287 37.045 3.87027 37.5468 3.47362C37.6591 3.38497 37.7717 3.29673 37.8844 3.20858C37.9612 3.14792 37.9612 3.14792 38.0396 3.08604C38.156 3.00834 38.156 3.00834 38.313 3ZM37.6723 9.26564C37.6299 9.2986 37.5875 9.33155 37.5438 9.3655C37.1949 9.63708 36.8475 9.91064 36.5003 10.1843C35.9822 10.5924 35.4595 10.9948 34.9363 11.3965C34.511 11.7235 34.0893 12.0543 33.6711 12.3901C33.2747 12.7082 32.8734 13.0184 32.4668 13.3238C31.8871 13.7591 31.3169 14.2058 30.7518 14.6594C30.4272 14.92 30.1007 15.1771 29.7674 15.427C29.4501 15.665 29.1367 15.9071 28.8255 16.1528C28.3015 16.5665 27.7733 16.9747 27.2442 17.3821C26.795 17.728 26.3472 18.0754 25.902 18.4263C25.3793 18.8384 24.8525 19.2452 24.325 19.6514C23.8758 19.9973 23.4279 20.3447 22.9828 20.6956C22.4221 21.1376 21.857 21.574 21.2906 22.0089C20.8653 22.3359 20.4436 22.6667 20.0254 23.0025C19.629 23.3206 19.2277 23.6308 18.8211 23.9361C18.2414 24.3715 17.6712 24.8182 17.1061 25.2718C16.7098 25.5899 16.3085 25.9001 15.9019 26.2055C15.2799 26.6726 14.6679 27.152 14.0635 27.6409C14.0222 27.6742 13.9809 27.7074 13.9384 27.7416C13.8972 27.7768 13.8561 27.8119 13.8137 27.8482C13.648 27.9708 13.648 27.9708 13.4301 28.0725C13.1468 28.2265 12.9353 28.3631 12.7655 28.6382C12.6038 29.2015 12.6515 29.8116 12.663 30.3916C12.6668 30.6344 12.6655 30.8771 12.6649 31.1199C12.6644 31.54 12.6672 31.9599 12.6721 32.38C12.6793 32.9873 12.6816 33.5945 12.6827 34.2018C12.6846 35.1872 12.6905 36.1726 12.6989 37.158C12.707 38.1149 12.7132 39.0717 12.717 40.0287C12.7172 40.0883 12.7174 40.148 12.7177 40.2094C12.7195 40.6758 12.7212 41.1423 12.7229 41.6087C12.7313 43.893 12.749 46.1771 12.7655 48.4614C15.7003 48.4614 18.6351 48.4614 21.6589 48.4614C21.6603 47.0352 21.6617 45.609 21.6632 44.1397C21.6638 43.7001 21.6644 43.2606 21.665 42.8077C21.6653 42.4414 21.6656 42.075 21.6656 41.7087C21.6656 41.6605 21.6656 41.6123 21.6656 41.5627C21.6655 40.3525 21.6599 39.1424 21.6435 37.9323C21.6429 37.8832 21.6422 37.8342 21.6415 37.7836C21.6274 36.7597 21.6086 35.7359 21.591 34.712C24.5931 34.712 27.5952 34.712 30.6882 34.712C30.6882 32.113 30.6882 29.5139 30.6882 26.8361C35.1913 26.8361 39.6944 26.8361 44.3339 26.8361C44.3339 33.9725 44.3339 41.1088 44.3339 48.4614C47.2688 48.4614 50.2036 48.4614 53.2274 48.4614C53.2379 45.1107 53.2466 41.76 53.2517 38.4093C53.2523 38.0139 53.2529 37.6185 53.2535 37.2231C53.2537 37.105 53.2537 37.105 53.2539 36.9845C53.2559 35.7092 53.2597 34.4339 53.2641 33.1586C53.2685 31.8504 53.2711 30.5423 53.2721 29.234C53.2728 28.4266 53.2748 27.6191 53.2787 26.8116C53.2812 26.2582 53.282 25.7048 53.2813 25.1513C53.281 24.8318 53.2815 24.5124 53.284 24.1929C53.2864 23.9004 53.2865 23.608 53.2849 23.3156C53.2847 23.2097 53.2853 23.1039 53.2867 22.9981C53.3092 22.4446 53.3092 22.4446 53.1263 21.9361C53.0078 21.8174 52.8908 21.7248 52.7522 21.6301C52.6709 21.5599 52.5902 21.4891 52.5103 21.4173C52.3391 21.2718 52.1668 21.1275 51.9943 20.9835C51.5518 20.6134 51.1181 20.2372 50.6938 19.847C50.4729 19.6452 50.2469 19.4542 50.0111 19.269C49.6526 18.9863 49.3211 18.68 48.9875 18.3698C48.7446 18.145 48.4985 17.9302 48.2375 17.7255C47.8813 17.4461 47.5531 17.1422 47.2224 16.8346C46.9795 16.6099 46.7334 16.395 46.4724 16.1904C46.1162 15.911 45.788 15.6071 45.4573 15.2995C45.2144 15.0748 44.9683 14.8599 44.7073 14.6553C44.3511 14.3759 44.0229 14.072 43.6922 13.7644C43.4492 13.5396 43.2032 13.3248 42.9422 13.1201C42.5859 12.8408 42.2578 12.5369 41.927 12.2293C41.6841 12.0045 41.438 11.7897 41.1771 11.585C40.8684 11.3429 40.5811 11.084 40.2945 10.8175C39.95 10.497 39.5985 10.1943 39.2274 9.90363C38.9541 9.68062 38.6959 9.44248 38.4377 9.20278C38.0713 8.86414 38.0383 8.97944 37.6723 9.26564Z" fill="#1A5F58" style="fill:#1A5F58;fill:color(display-p3 0.1020 0.3725 0.3451);fill-opacity:1;"/>
<path d="M75.54 10.722H80.424L83.944 20.93L87.42 10.722H92.018V25H88.916V14.44H88.85L85.242 25H82.492L78.774 14.44H78.686V25H75.54V10.722ZM97.9728 25.22C96.9754 25.22 96.2274 25.132 95.7288 24.956C95.2448 24.7653 94.9001 24.4353 94.6948 23.966C94.5041 23.482 94.4088 22.7633 94.4088 21.81C94.4088 20.9593 94.5114 20.292 94.7168 19.808C94.9368 19.324 95.2814 18.9793 95.7508 18.774C96.2348 18.554 96.8948 18.444 97.7308 18.444H101.339V17.718C101.339 17.2633 101.273 16.926 101.141 16.706C101.023 16.486 100.796 16.332 100.459 16.244C100.136 16.156 99.6448 16.112 98.9848 16.112C98.0754 16.112 96.8288 16.2 95.2448 16.376V14.352C96.4034 14.2053 97.7601 14.132 99.3148 14.132C100.679 14.132 101.727 14.2347 102.461 14.44C103.209 14.6453 103.744 14.9973 104.067 15.496C104.389 15.9947 104.551 16.7207 104.551 17.674V25H101.405V24.032C101.155 24.4573 100.818 24.758 100.393 24.934C99.9674 25.1247 99.1608 25.22 97.9728 25.22ZM99.2268 23.218C99.8721 23.218 100.334 23.196 100.613 23.152C100.818 23.1227 100.957 23.0787 101.031 23.02C101.119 22.9613 101.192 22.866 101.251 22.734C101.309 22.6313 101.339 22.4773 101.339 22.272V20.204H99.1388C98.6401 20.204 98.2881 20.2407 98.0828 20.314C97.8774 20.3727 97.7381 20.5047 97.6648 20.71C97.5914 20.9007 97.5548 21.2453 97.5548 21.744C97.5548 22.228 97.5914 22.5653 97.6648 22.756C97.7381 22.9467 97.8774 23.0713 98.0828 23.13C98.3028 23.1887 98.6841 23.218 99.2268 23.218ZM107.377 14.352H110.435V16.222C110.435 15.8847 110.574 15.5547 110.853 15.232C111.131 14.9093 111.483 14.6453 111.909 14.44C112.349 14.2347 112.781 14.132 113.207 14.132H114.351V16.794H113.251C112.341 16.794 111.667 16.9333 111.227 17.212C110.801 17.4907 110.589 17.9527 110.589 18.598V25H107.377V14.352ZM116.209 10.502H119.421V13.098H116.209V10.502ZM116.209 14.352H119.421V25H116.209V14.352ZM125.344 25.22C124.347 25.22 123.599 25.132 123.1 24.956C122.616 24.7653 122.271 24.4353 122.066 23.966C121.875 23.482 121.78 22.7633 121.78 21.81C121.78 20.9593 121.883 20.292 122.088 19.808C122.308 19.324 122.653 18.9793 123.122 18.774C123.606 18.554 124.266 18.444 125.102 18.444H128.71V17.718C128.71 17.2633 128.644 16.926 128.512 16.706C128.395 16.486 128.167 16.332 127.83 16.244C127.507 16.156 127.016 16.112 126.356 16.112C125.447 16.112 124.2 16.2 122.616 16.376V14.352C123.775 14.2053 125.131 14.132 126.686 14.132C128.05 14.132 129.099 14.2347 129.832 14.44C130.58 14.6453 131.115 14.9973 131.438 15.496C131.761 15.9947 131.922 16.7207 131.922 17.674V25H128.776V24.032C128.527 24.4573 128.189 24.758 127.764 24.934C127.339 25.1247 126.532 25.22 125.344 25.22ZM126.598 23.218C127.243 23.218 127.705 23.196 127.984 23.152C128.189 23.1227 128.329 23.0787 128.402 23.02C128.49 22.9613 128.563 22.866 128.622 22.734C128.681 22.6313 128.71 22.4773 128.71 22.272V20.204H126.51C126.011 20.204 125.659 20.2407 125.454 20.314C125.249 20.3727 125.109 20.5047 125.036 20.71C124.963 20.9007 124.926 21.2453 124.926 21.744C124.926 22.228 124.963 22.5653 125.036 22.756C125.109 22.9467 125.249 23.0713 125.454 23.13C125.674 23.1887 126.055 23.218 126.598 23.218ZM134.748 14.352H137.916V15.65C138.165 14.638 139.302 14.132 141.326 14.132C142.69 14.132 143.643 14.3813 144.186 14.88C144.743 15.364 145.022 16.134 145.022 17.19V25H141.81V17.608C141.81 17.1973 141.766 16.8893 141.678 16.684C141.605 16.4787 141.443 16.332 141.194 16.244C140.959 16.156 140.593 16.112 140.094 16.112C139.463 16.112 139.001 16.156 138.708 16.244C138.415 16.3173 138.217 16.4567 138.114 16.662C138.011 16.8673 137.96 17.1827 137.96 17.608V25H134.748V14.352ZM147.832 14.352H151V15.65C151.249 14.638 152.386 14.132 154.41 14.132C155.774 14.132 156.727 14.3813 157.27 14.88C157.827 15.364 158.106 16.134 158.106 17.19V25H154.894V17.608C154.894 17.1973 154.85 16.8893 154.762 16.684C154.688 16.4787 154.527 16.332 154.278 16.244C154.043 16.156 153.676 16.112 153.178 16.112C152.547 16.112 152.085 16.156 151.792 16.244C151.498 16.3173 151.3 16.4567 151.198 16.662C151.095 16.8673 151.044 17.1827 151.044 17.608V25H147.832V14.352ZM163.93 25.22C162.932 25.22 162.184 25.132 161.686 24.956C161.202 24.7653 160.857 24.4353 160.652 23.966C160.461 23.482 160.366 22.7633 160.366 21.81C160.366 20.9593 160.468 20.292 160.674 19.808C160.894 19.324 161.238 18.9793 161.708 18.774C162.192 18.554 162.852 18.444 163.688 18.444H167.296V17.718C167.296 17.2633 167.23 16.926 167.098 16.706C166.98 16.486 166.753 16.332 166.416 16.244C166.093 16.156 165.602 16.112 164.942 16.112C164.032 16.112 162.786 16.2 161.202 16.376V14.352C162.36 14.2053 163.717 14.132 165.272 14.132C166.636 14.132 167.684 14.2347 168.418 14.44C169.166 14.6453 169.701 14.9973 170.024 15.496C170.346 15.9947 170.508 16.7207 170.508 17.674V25H167.362V24.032C167.112 24.4573 166.775 24.758 166.35 24.934C165.924 25.1247 165.118 25.22 163.93 25.22ZM165.184 23.218C165.829 23.218 166.291 23.196 166.57 23.152C166.775 23.1227 166.914 23.0787 166.988 23.02C167.076 22.9613 167.149 22.866 167.208 22.734C167.266 22.6313 167.296 22.4773 167.296 22.272V20.204H165.096C164.597 20.204 164.245 20.2407 164.04 20.314C163.834 20.3727 163.695 20.5047 163.622 20.71C163.548 20.9007 163.512 21.2453 163.512 21.744C163.512 22.228 163.548 22.5653 163.622 22.756C163.695 22.9467 163.834 23.0713 164.04 23.13C164.26 23.1887 164.641 23.218 165.184 23.218ZM81.854 50.22C81.2087 50.22 80.6293 50.1907 80.116 50.132C79.6173 50.0733 79.0673 49.9633 78.466 49.802C77.7913 49.626 77.234 49.3987 76.794 49.12C76.354 48.8267 75.9873 48.4233 75.694 47.91C75.386 47.3967 75.232 46.788 75.232 46.084V39.814C75.232 36.9393 77.4393 35.502 81.854 35.502C82.9833 35.502 84.494 35.6633 86.386 35.986V38.56C84.6847 38.1493 83.1887 37.944 81.898 37.944C81.3553 37.944 80.93 37.9587 80.622 37.988C80.3287 38.0173 80.0207 38.0907 79.698 38.208C79.0087 38.4427 78.664 38.9633 78.664 39.77V45.842C78.664 47.1327 79.8447 47.778 82.206 47.778C83.218 47.778 84.6407 47.5653 86.474 47.14V49.736C84.9047 50.0587 83.3647 50.22 81.854 50.22ZM93.639 50.22C92.979 50.22 92.4363 50.198 92.011 50.154C91.5856 50.11 91.131 50.022 90.647 49.89C90.119 49.7433 89.6936 49.538 89.371 49.274C89.0483 48.9953 88.777 48.6067 88.557 48.108C88.337 47.624 88.227 47.0373 88.227 46.348V43.202C88.227 42.498 88.337 41.882 88.557 41.354C88.777 40.826 89.063 40.4153 89.415 40.122C89.723 39.8727 90.1263 39.6673 90.625 39.506C91.1383 39.33 91.637 39.22 92.121 39.176C92.6783 39.1467 93.1843 39.132 93.639 39.132C94.3136 39.132 94.849 39.154 95.245 39.198C95.6556 39.2273 96.103 39.3153 96.587 39.462C97.115 39.6233 97.5403 39.8433 97.863 40.122C98.2003 40.4007 98.4863 40.7967 98.721 41.31C98.941 41.838 99.051 42.4687 99.051 43.202V46.348C99.051 47.008 98.941 47.5873 98.721 48.086C98.5156 48.5847 98.2443 48.9733 97.907 49.252C97.6136 49.5013 97.2103 49.7067 96.697 49.868C96.1983 50.0147 95.707 50.11 95.223 50.154C94.783 50.198 94.255 50.22 93.639 50.22ZM93.639 48.218C94.2403 48.218 94.695 48.174 95.003 48.086C95.311 47.9833 95.5236 47.8293 95.641 47.624C95.773 47.4187 95.839 47.118 95.839 46.722V42.696C95.839 42.1093 95.685 41.6987 95.377 41.464C95.069 41.2293 94.4896 41.112 93.639 41.112C92.7883 41.112 92.209 41.2293 91.901 41.464C91.593 41.6987 91.439 42.1093 91.439 42.696V46.722C91.439 47.118 91.4976 47.4187 91.615 47.624C91.747 47.8293 91.967 47.9833 92.275 48.086C92.583 48.174 93.0376 48.218 93.639 48.218ZM101.554 39.352H104.722V40.65C104.972 39.638 106.108 39.132 108.132 39.132C109.496 39.132 110.45 39.3813 110.992 39.88C111.55 40.364 111.828 41.134 111.828 42.19V50H108.616V42.608C108.616 42.1973 108.572 41.8893 108.484 41.684C108.411 41.4787 108.25 41.332 108 41.244C107.766 41.156 107.399 41.112 106.9 41.112C106.27 41.112 105.808 41.156 105.514 41.244C105.221 41.3173 105.023 41.4567 104.92 41.662C104.818 41.8673 104.766 42.1827 104.766 42.608V50H101.554V39.352ZM118.62 50.22C117.476 50.22 116.076 50.11 114.418 49.89V47.756C116.457 48.064 117.872 48.218 118.664 48.218C119.339 48.218 119.838 48.152 120.16 48.02C120.483 47.888 120.644 47.646 120.644 47.294V46.634C120.644 46.2673 120.542 46.0107 120.336 45.864C120.131 45.7027 119.728 45.622 119.126 45.622H117.74C116.611 45.622 115.738 45.402 115.122 44.962C114.506 44.5073 114.198 43.8473 114.198 42.982V41.684C114.198 40.76 114.638 40.1073 115.518 39.726C116.398 39.33 117.726 39.132 119.5 39.132C120.204 39.132 121.466 39.198 123.284 39.33V41.376C120.996 41.2 119.706 41.112 119.412 41.112C118.547 41.112 117.982 41.1707 117.718 41.288C117.484 41.42 117.366 41.662 117.366 42.014V42.586C117.366 42.7767 117.462 42.9453 117.652 43.092C117.843 43.224 118.122 43.29 118.488 43.29H119.896C122.507 43.29 123.812 44.1407 123.812 45.842V47.184C123.812 47.6973 123.717 48.1447 123.526 48.526C123.336 48.9073 123.086 49.208 122.778 49.428C122.485 49.6333 122.104 49.7947 121.634 49.912C121.18 50.0293 120.703 50.11 120.204 50.154C119.75 50.198 119.222 50.22 118.62 50.22ZM131.521 50.22C130.978 50.22 130.524 50.198 130.157 50.154C129.79 50.11 129.424 50.022 129.057 49.89C128.646 49.758 128.309 49.5747 128.045 49.34C127.796 49.1053 127.59 48.7827 127.429 48.372C127.253 47.9467 127.165 47.4553 127.165 46.898V41.332H125.009V39.352H127.165V36.272H130.377V39.352H133.303V41.332H130.377V46.348C130.377 46.8613 130.421 47.25 130.509 47.514C130.597 47.7633 130.766 47.9467 131.015 48.064C131.264 48.1667 131.646 48.218 132.159 48.218C132.364 48.218 132.746 48.1813 133.303 48.108V50.11C132.614 50.1833 132.02 50.22 131.521 50.22ZM135.156 39.352H138.214V41.222C138.214 40.8847 138.353 40.5547 138.632 40.232C138.911 39.9093 139.263 39.6453 139.688 39.44C140.128 39.2347 140.561 39.132 140.986 39.132H142.13V41.794H141.03C140.121 41.794 139.446 41.9333 139.006 42.212C138.581 42.4907 138.368 42.9527 138.368 43.598V50H135.156V39.352ZM147.596 50.22C146.232 50.22 145.272 49.978 144.714 49.494C144.172 48.9953 143.9 48.218 143.9 47.162V39.352H147.112V46.722C147.112 47.1327 147.149 47.4407 147.222 47.646C147.31 47.8513 147.472 47.998 147.706 48.086C147.956 48.174 148.33 48.218 148.828 48.218C149.459 48.218 149.921 48.1813 150.214 48.108C150.508 48.02 150.706 47.8733 150.808 47.668C150.911 47.4627 150.962 47.1473 150.962 46.722V39.352H154.174V50H151.006V48.702C150.772 49.714 149.635 50.22 147.596 50.22ZM162.176 50.22C161.619 50.22 161.179 50.2053 160.856 50.176C160.534 50.1613 160.138 50.1247 159.668 50.066C159.199 50.0073 158.81 49.9047 158.502 49.758C158.209 49.6113 157.901 49.3913 157.578 49.098C156.977 48.5993 156.676 47.7487 156.676 46.546V43.004C156.676 42.036 156.896 41.2293 157.336 40.584C157.498 40.3493 157.732 40.1367 158.04 39.946C158.363 39.7407 158.686 39.5793 159.008 39.462C159.272 39.374 159.624 39.3007 160.064 39.242C160.504 39.1833 160.893 39.1467 161.23 39.132H162.396C163.218 39.132 164.296 39.264 165.63 39.528V41.64C164.12 41.288 162.961 41.112 162.154 41.112C160.673 41.112 159.932 41.6107 159.932 42.608V46.524C159.932 47.6533 160.746 48.218 162.374 48.218C163.166 48.218 164.303 48.0567 165.784 47.734V49.846C164.45 50.0953 163.247 50.22 162.176 50.22ZM172.921 50.22C172.379 50.22 171.924 50.198 171.557 50.154C171.191 50.11 170.824 50.022 170.457 49.89C170.047 49.758 169.709 49.5747 169.445 49.34C169.196 49.1053 168.991 48.7827 168.829 48.372C168.653 47.9467 168.565 47.4553 168.565 46.898V41.332H166.409V39.352H168.565V36.272H171.777V39.352H174.703V41.332H171.777V46.348C171.777 46.8613 171.821 47.25 171.909 47.514C171.997 47.7633 172.166 47.9467 172.415 48.064C172.665 48.1667 173.046 48.218 173.559 48.218C173.765 48.218 174.146 48.1813 174.703 48.108V50.11C174.014 50.1833 173.42 50.22 172.921 50.22ZM176.644 35.502H179.856V38.098H176.644V35.502ZM176.644 39.352H179.856V50H176.644V39.352ZM187.869 50.22C187.209 50.22 186.667 50.198 186.241 50.154C185.816 50.11 185.361 50.022 184.877 49.89C184.349 49.7433 183.924 49.538 183.601 49.274C183.279 48.9953 183.007 48.6067 182.787 48.108C182.567 47.624 182.457 47.0373 182.457 46.348V43.202C182.457 42.498 182.567 41.882 182.787 41.354C183.007 40.826 183.293 40.4153 183.645 40.122C183.953 39.8727 184.357 39.6673 184.855 39.506C185.369 39.33 185.867 39.22 186.351 39.176C186.909 39.1467 187.415 39.132 187.869 39.132C188.544 39.132 189.079 39.154 189.475 39.198C189.886 39.2273 190.333 39.3153 190.817 39.462C191.345 39.6233 191.771 39.8433 192.093 40.122C192.431 40.4007 192.717 40.7967 192.951 41.31C193.171 41.838 193.281 42.4687 193.281 43.202V46.348C193.281 47.008 193.171 47.5873 192.951 48.086C192.746 48.5847 192.475 48.9733 192.137 49.252C191.844 49.5013 191.441 49.7067 190.927 49.868C190.429 50.0147 189.937 50.11 189.453 50.154C189.013 50.198 188.485 50.22 187.869 50.22ZM187.869 48.218C188.471 48.218 188.925 48.174 189.233 48.086C189.541 47.9833 189.754 47.8293 189.871 47.624C190.003 47.4187 190.069 47.118 190.069 46.722V42.696C190.069 42.1093 189.915 41.6987 189.607 41.464C189.299 41.2293 188.72 41.112 187.869 41.112C187.019 41.112 186.439 41.2293 186.131 41.464C185.823 41.6987 185.669 42.1093 185.669 42.696V46.722C185.669 47.118 185.728 47.4187 185.845 47.624C185.977 47.8293 186.197 47.9833 186.505 48.086C186.813 48.174 187.268 48.218 187.869 48.218ZM195.785 39.352H198.953V40.65C199.202 39.638 200.339 39.132 202.363 39.132C203.727 39.132 204.68 39.3813 205.223 39.88C205.78 40.364 206.059 41.134 206.059 42.19V50H202.847V42.608C202.847 42.1973 202.803 41.8893 202.715 41.684C202.642 41.4787 202.48 41.332 202.231 41.244C201.996 41.156 201.63 41.112 201.131 41.112C200.5 41.112 200.038 41.156 199.745 41.244C199.452 41.3173 199.254 41.4567 199.151 41.662C199.048 41.8673 198.997 42.1827 198.997 42.608V50H195.785V39.352Z" fill="#010101" style="fill:#010101;fill:color(display-p3 0.0039 0.0039 0.0039);fill-opacity:1;"/>
</svg>
