<svg width="294" height="140" viewBox="0 0 294 168" fill="none" xmlns="http://www.w3.org/2000/svg">
<g filter="url(#filter0_d_683_15074)">
<path d="M127.629 20.9395C151.852 20.9395 171.487 40.5747 171.487 64.7975C171.487 89.0203 151.852 108.656 127.629 108.656C103.406 108.656 83.771 89.0203 83.771 64.7975C83.771 40.5747 103.406 20.9395 127.629 20.9395ZM127.629 38.4827C126.466 38.4827 125.35 38.9447 124.528 39.7672C123.705 40.5897 123.243 41.7053 123.243 42.8685V64.7975C123.243 65.9606 123.706 67.0759 124.528 67.8982L137.686 81.0556C138.513 81.8546 139.621 82.2966 140.771 82.2866C141.921 82.2766 143.021 81.8154 143.834 81.0022C144.647 80.1891 145.108 79.089 145.118 77.9391C145.128 76.7892 144.686 75.6813 143.887 74.8541L132.015 62.9818V42.8685C132.015 41.7053 131.553 40.5897 130.73 39.7672C129.908 38.9447 128.792 38.4827 127.629 38.4827Z" fill="#1A5F58" style="fill:#1A5F58;fill:color(display-p3 0.1020 0.3725 0.3451);fill-opacity:1;"/>
</g>
<g filter="url(#filter1_d_683_15074)">
<path d="M169.557 97.5932C167.358 97.0436 165.16 95.9443 163.511 94.2954C161.862 93.7458 161.312 92.0969 161.312 90.9977C161.312 89.8984 161.862 88.2495 162.961 87.6999C164.61 86.6006 166.259 85.5014 167.908 86.051C171.206 86.051 173.954 87.6999 175.603 89.8984L180.549 83.3028C178.9 81.654 177.252 80.5547 175.603 79.4554C173.954 78.3562 171.755 77.8065 169.557 77.8065V70.1117H162.961V77.8065C160.213 78.3562 157.465 80.0051 155.266 82.2036C153.068 84.9517 151.419 88.2495 151.969 91.5473C151.969 94.8451 153.068 98.1428 155.266 100.341C158.014 103.09 161.862 104.738 165.16 106.387C166.809 106.937 169.007 108.036 170.656 109.135C171.755 110.235 172.305 111.884 172.305 113.532C172.305 115.181 171.755 116.83 170.656 118.479C169.007 120.128 166.809 120.678 165.16 120.678C162.961 120.678 160.213 120.128 158.564 118.479C156.915 117.38 155.266 115.731 154.167 114.082L148.671 120.128C150.32 122.327 151.969 123.975 154.167 125.624C156.915 127.273 160.213 128.922 163.511 128.922V136.067H169.557V127.823C172.854 127.273 175.603 125.624 177.801 123.426C180.549 120.678 182.198 116.281 182.198 112.433C182.198 109.135 181.099 105.288 178.351 103.09C175.603 100.341 172.854 98.6925 169.557 97.5932ZM166.259 59.1191C142.075 59.1191 122.289 78.9058 122.289 103.09C122.289 127.273 142.075 147.06 166.259 147.06C190.443 147.06 210.229 127.273 210.229 103.09C210.229 78.9058 190.443 59.1191 166.259 59.1191ZM166.259 141.014C145.373 141.014 128.334 123.975 128.334 103.09C128.334 82.2036 145.373 65.1651 166.259 65.1651C187.145 65.1651 204.183 82.2036 204.183 103.09C204.183 123.975 187.145 141.014 166.259 141.014Z" fill="#010101" style="fill:#010101;fill:color(display-p3 0.0039 0.0039 0.0039);fill-opacity:1;"/>
<path d="M169.557 97.5932C167.358 97.0436 165.16 95.9443 163.511 94.2954C161.862 93.7458 161.312 92.0969 161.312 90.9977C161.312 89.8984 161.862 88.2495 162.961 87.6999C164.61 86.6006 166.259 85.5014 167.908 86.051C171.206 86.051 173.954 87.6999 175.603 89.8984L180.549 83.3028C178.9 81.654 177.252 80.5547 175.603 79.4554C173.954 78.3562 171.755 77.8065 169.557 77.8065V70.1117H162.961V77.8065C160.213 78.3562 157.465 80.0051 155.266 82.2036C153.068 84.9517 151.419 88.2495 151.969 91.5473C151.969 94.8451 153.068 98.1428 155.266 100.341C158.014 103.09 161.862 104.738 165.16 106.387C166.809 106.937 169.007 108.036 170.656 109.135C171.755 110.235 172.305 111.884 172.305 113.532C172.305 115.181 171.755 116.83 170.656 118.479C169.007 120.128 166.809 120.678 165.16 120.678C162.961 120.678 160.213 120.128 158.564 118.479C156.915 117.38 155.266 115.731 154.167 114.082L148.671 120.128C150.32 122.327 151.969 123.975 154.167 125.624C156.915 127.273 160.213 128.922 163.511 128.922V136.067H169.557V127.823C172.854 127.273 175.603 125.624 177.801 123.426C180.549 120.678 182.198 116.281 182.198 112.433C182.198 109.135 181.099 105.288 178.351 103.09C175.603 100.341 172.854 98.6925 169.557 97.5932ZM166.259 59.1191C142.075 59.1191 122.289 78.9058 122.289 103.09C122.289 127.273 142.075 147.06 166.259 147.06C190.443 147.06 210.229 127.273 210.229 103.09C210.229 78.9058 190.443 59.1191 166.259 59.1191ZM166.259 141.014C145.373 141.014 128.334 123.975 128.334 103.09C128.334 82.2036 145.373 65.1651 166.259 65.1651C187.145 65.1651 204.183 82.2036 204.183 103.09C204.183 123.975 187.145 141.014 166.259 141.014Z" stroke="black" style="stroke:black;stroke:black;stroke-opacity:1;"/>
</g>
<defs>
<filter id="filter0_d_683_15074" x="63.771" y="0.939453" width="127.716" height="127.716" filterUnits="userSpaceOnUse" color-interpolation-filters="sRGB">
<feFlood flood-opacity="0" result="BackgroundImageFix"/>
<feColorMatrix in="SourceAlpha" type="matrix" values="0 0 0 0 0 0 0 0 0 0 0 0 0 0 0 0 0 0 127 0" result="hardAlpha"/>
<feOffset/>
<feGaussianBlur stdDeviation="10"/>
<feComposite in2="hardAlpha" operator="out"/>
<feColorMatrix type="matrix" values="0 0 0 0 0.101961 0 0 0 0 0.372549 0 0 0 0 0.345098 0 0 0 0.2 0"/>
<feBlend mode="normal" in2="BackgroundImageFix" result="effect1_dropShadow_683_15074"/>
<feBlend mode="normal" in="SourceGraphic" in2="effect1_dropShadow_683_15074" result="shape"/>
</filter>
<filter id="filter1_d_683_15074" x="101.789" y="38.6191" width="128.941" height="128.94" filterUnits="userSpaceOnUse" color-interpolation-filters="sRGB">
<feFlood flood-opacity="0" result="BackgroundImageFix"/>
<feColorMatrix in="SourceAlpha" type="matrix" values="0 0 0 0 0 0 0 0 0 0 0 0 0 0 0 0 0 0 127 0" result="hardAlpha"/>
<feOffset/>
<feGaussianBlur stdDeviation="10"/>
<feComposite in2="hardAlpha" operator="out"/>
<feColorMatrix type="matrix" values="0 0 0 0 0.101961 0 0 0 0 0.372549 0 0 0 0 0.345098 0 0 0 0.2 0"/>
<feBlend mode="normal" in2="BackgroundImageFix" result="effect1_dropShadow_683_15074"/>
<feBlend mode="normal" in="SourceGraphic" in2="effect1_dropShadow_683_15074" result="shape"/>
</filter>
</defs>
</svg>
