<svg width="274" height="140" viewBox="0 0 294 140" fill="none" xmlns="http://www.w3.org/2000/svg">
<g clip-path="url(#clip0_683_15069)">
<g filter="url(#filter0_d_683_15069)">
<path d="M167.307 5C142.609 5 122.622 12.1509 122.622 21.252V37.5041C98.249 38.3167 82 45.1425 82 53.7561V102.512C82 111.37 101.986 118.764 126.685 118.764H127.229C133.176 118.764 139.01 118.317 144.721 117.464C150.392 128.069 161.734 135 174.7 135C182.493 134.999 190.07 132.442 196.269 127.72C202.468 122.998 206.947 116.372 209.018 108.859C210.716 107.242 211.813 105.267 212 103.032V21.252C212 12.1509 192.014 5 167.315 5H167.307ZM126.685 45.6301C146.996 45.6301 163.245 49.2868 163.245 53.7561C163.245 58.2254 146.996 61.8821 126.685 61.8821C106.373 61.8821 90.1245 58.2254 90.1245 53.7561C90.1245 49.2868 106.373 45.6301 126.685 45.6301ZM126.685 110.638C104.667 110.638 92.1556 104.869 90.1245 102.512V96.0114C101.735 100.885 114.287 103.103 126.863 102.504C130.991 102.496 135.232 102.26 139.408 101.813C139.058 104.828 139.586 107.599 140.407 110.24C136.735 110.411 132.551 110.654 128.318 110.654L126.603 110.638H126.685ZM139.44 93.6548C135.646 94.118 131.251 94.3862 126.798 94.3862H126.685C104.675 94.3862 92.1637 88.6167 90.1326 86.2602V79.4343C101.707 84.416 114.248 86.7481 126.839 86.2602C131.994 86.2512 137.142 85.9037 142.251 85.22C140.651 87.7066 139.887 90.5344 139.473 93.4679L139.44 93.6548ZM126.685 78.1341C104.667 78.1341 92.1556 72.3647 90.1245 70.0081V62.6947C101.699 67.6765 114.24 70.0086 126.831 69.5206C139.525 69.9443 152.154 67.5406 163.806 62.4834L163.253 65.4576C157.154 67.5091 151.723 71.1702 147.532 76.0539C141.423 77.3947 134.444 78.1341 127.294 78.1341H126.668H126.685ZM174.7 126.89C167.353 126.89 160.306 123.971 155.11 118.774C149.915 113.578 146.996 106.53 146.996 99.1805C146.996 91.8315 149.915 84.7834 155.11 79.5868C160.306 74.3902 167.353 71.4708 174.7 71.4708C182.048 71.4708 189.095 74.3902 194.291 79.5868C199.486 84.7834 202.405 91.8315 202.405 99.1805C202.405 106.53 199.486 113.578 194.291 118.774C189.095 123.971 182.048 126.89 174.7 126.89ZM203.867 70.0081C202.446 71.3652 200.739 72.4459 198.855 73.1448C196.515 71.162 193.98 69.4068 191.234 67.9929C195.72 66.8306 200.061 65.1679 204.176 63.036L203.867 70.0081ZM203.867 53.7561C201.918 56.2752 190.787 61.3946 171.369 61.8821V53.7561H171.459C182.8 53.7731 194.019 51.406 204.387 46.8083L203.867 53.7561ZM203.867 37.5041C201.836 40.1856 189.325 45.6301 167.307 45.6301H165.439C154.959 40.254 143.345 37.4675 131.568 37.5041H130.747V30.1906C142.321 35.1724 154.862 37.5045 167.453 37.0165C180.147 37.4403 192.777 35.0366 204.428 29.9794L203.876 37.5041H203.867ZM167.307 29.378C146.996 29.378 130.747 25.7213 130.747 21.252C130.747 16.7827 146.996 13.126 167.307 13.126C187.618 13.126 203.867 16.7827 203.867 21.252C203.867 25.7213 187.618 29.378 167.307 29.378Z" fill="#1D312F" style="fill:#1D312F;fill:color(display-p3 0.1137 0.1922 0.1843);fill-opacity:1;"/>
</g>
<g filter="url(#filter1_d_683_15069)">
<path fill-rule="evenodd" clip-rule="evenodd" d="M149.053 74.1408C144.022 79.1554 139 83.4638 139 99.5885C139 115.713 143.072 119.894 148.103 124.901C153.141 129.913 157.635 136 173.836 136C190.036 136 193.44 131.828 198.472 126.817C203.506 121.813 209.5 116.864 209.5 100.739C209.5 84.6147 204.457 79.152 199.422 74.1408C194.394 69.1331 191.843 64 175.643 64C159.443 64 154.088 69.1331 149.053 74.1408ZM182.472 92.1879C182.472 93.604 183.627 94.7533 185.049 94.7533H187.421L180.503 101.639C180.423 101.719 180.328 101.782 180.224 101.825C180.119 101.868 180.007 101.89 179.894 101.89C179.781 101.89 179.669 101.868 179.565 101.825C179.461 101.782 179.366 101.719 179.286 101.639L173.836 96.2139C172.708 95.0922 171.179 94.4621 169.584 94.4621C167.99 94.4621 166.461 95.0922 165.333 96.2139L157.453 104.057C157.2 104.292 156.997 104.575 156.856 104.89C156.715 105.205 156.639 105.545 156.633 105.889C156.627 106.233 156.691 106.576 156.82 106.895C156.95 107.215 157.143 107.505 157.388 107.748C157.633 107.992 157.924 108.184 158.245 108.313C158.566 108.442 158.91 108.505 159.256 108.499C159.602 108.493 159.943 108.418 160.259 108.278C160.575 108.137 160.86 107.935 161.096 107.683L168.976 99.8397C169.056 99.7601 169.151 99.6969 169.255 99.6538C169.36 99.6107 169.471 99.5885 169.584 99.5885C169.697 99.5885 169.809 99.6107 169.914 99.6538C170.018 99.6969 170.113 99.7601 170.193 99.8397L175.643 105.265C176.771 106.386 178.3 107.017 179.894 107.017C181.489 107.017 183.018 106.386 184.145 105.265L191.063 98.3826V100.739C191.063 101.42 191.335 102.072 191.818 102.553C192.302 103.035 192.957 103.305 193.641 103.305C194.324 103.305 194.98 103.035 195.463 102.553C195.947 102.072 196.218 101.42 196.218 100.739V92.1879C196.218 91.5075 195.947 90.8549 195.463 90.3738C194.98 89.8927 194.324 89.6224 193.641 89.6224H185.049C184.366 89.6224 183.71 89.8927 183.227 90.3738C182.743 90.8549 182.472 91.5075 182.472 92.1879Z" fill="#1A5F58" style="fill:#1A5F58;fill:color(display-p3 0.1020 0.3725 0.3451);fill-opacity:1;"/>
</g>
</g>
<defs>
<filter id="filter0_d_683_15069" x="62" y="-15" width="170" height="170" filterUnits="userSpaceOnUse" color-interpolation-filters="sRGB">
<feFlood flood-opacity="0" result="BackgroundImageFix"/>
<feColorMatrix in="SourceAlpha" type="matrix" values="0 0 0 0 0 0 0 0 0 0 0 0 0 0 0 0 0 0 127 0" result="hardAlpha"/>
<feOffset/>
<feGaussianBlur stdDeviation="10"/>
<feComposite in2="hardAlpha" operator="out"/>
<feColorMatrix type="matrix" values="0 0 0 0 0.101961 0 0 0 0 0.372549 0 0 0 0 0.345098 0 0 0 0.2 0"/>
<feBlend mode="normal" in2="BackgroundImageFix" result="effect1_dropShadow_683_15069"/>
<feBlend mode="normal" in="SourceGraphic" in2="effect1_dropShadow_683_15069" result="shape"/>
</filter>
<filter id="filter1_d_683_15069" x="119" y="44" width="110.5" height="112" filterUnits="userSpaceOnUse" color-interpolation-filters="sRGB">
<feFlood flood-opacity="0" result="BackgroundImageFix"/>
<feColorMatrix in="SourceAlpha" type="matrix" values="0 0 0 0 0 0 0 0 0 0 0 0 0 0 0 0 0 0 127 0" result="hardAlpha"/>
<feOffset/>
<feGaussianBlur stdDeviation="10"/>
<feComposite in2="hardAlpha" operator="out"/>
<feColorMatrix type="matrix" values="0 0 0 0 0.101961 0 0 0 0 0.372549 0 0 0 0 0.345098 0 0 0 0.15 0"/>
<feBlend mode="normal" in2="BackgroundImageFix" result="effect1_dropShadow_683_15069"/>
<feBlend mode="normal" in="SourceGraphic" in2="effect1_dropShadow_683_15069" result="shape"/>
</filter>
<clipPath id="clip0_683_15069">
<rect width="294" height="140" fill="white" style="fill:white;fill:white;fill-opacity:1;"/>
</clipPath>
</defs>
</svg>
