<svg width="294" height="140" viewBox="0 0 294 151" fill="none" xmlns="http://www.w3.org/2000/svg">
<g filter="url(#filter0_d_683_14895)">
<path d="M164.879 94.0369C159.939 102.684 151.681 107.648 142.25 107.648C132.819 107.648 124.574 102.689 119.621 94.0369C118.937 92.7885 118.766 91.3189 119.144 89.9441C119.522 88.5694 120.418 87.3994 121.641 86.6859C122.864 85.9724 124.316 85.7724 125.683 86.129C127.05 86.4855 128.225 87.3701 128.953 88.5924C130.7 91.6459 134.75 96.7591 142.25 96.7591C149.75 96.7591 153.8 91.6413 155.547 88.5924C155.894 87.9596 156.362 87.4028 156.924 86.9547C157.486 86.5066 158.131 86.1762 158.82 85.9827C159.51 85.7892 160.231 85.7365 160.942 85.8277C161.652 85.9189 162.337 86.1522 162.957 86.5139C163.577 86.8756 164.119 87.3585 164.553 87.9344C164.986 88.5103 165.301 89.1677 165.48 89.8681C165.659 90.5684 165.698 91.2978 165.595 92.0136C165.491 92.7294 165.248 93.4172 164.879 94.0369ZM190.75 80.4258C190.75 90.1171 187.906 99.5907 182.576 107.649C177.247 115.707 169.672 121.987 160.81 125.696C151.948 129.405 142.196 130.375 132.788 128.484C123.38 126.594 114.738 121.927 107.955 115.074C101.172 108.221 96.5533 99.4903 94.6819 89.9852C92.8106 80.4801 93.771 70.6279 97.4419 61.6743C101.113 52.7207 107.329 45.068 115.305 39.6838C123.281 34.2996 132.658 31.4258 142.25 31.4258C155.109 31.4402 167.437 36.6073 176.529 45.7935C185.621 54.9796 190.736 67.4346 190.75 80.4258ZM179.972 80.4258C179.972 72.8881 177.76 65.5197 173.615 59.2524C169.47 52.985 163.579 48.1002 156.686 45.2157C149.793 42.3312 142.208 41.5764 134.891 43.047C127.573 44.5175 120.852 48.1472 115.576 53.4771C110.301 58.8071 106.708 65.5978 105.253 72.9907C103.797 80.3835 104.544 88.0464 107.399 95.0103C110.254 101.974 115.089 107.926 121.293 112.114C127.496 116.302 134.789 118.537 142.25 118.537C152.251 118.526 161.84 114.507 168.912 107.362C175.984 100.218 179.962 90.5301 179.972 80.4258ZM126.083 78.611C127.504 78.611 128.894 78.1852 130.075 77.3876C131.257 76.5899 132.178 75.4562 132.722 74.1297C133.265 72.8032 133.408 71.3436 133.13 69.9355C132.853 68.5273 132.169 67.2339 131.164 66.2186C130.159 65.2034 128.879 64.512 127.485 64.2319C126.091 63.9518 124.647 64.0956 123.334 64.645C122.021 65.1945 120.899 66.1249 120.109 67.3187C119.32 68.5125 118.898 69.916 118.898 71.3517C118.898 73.277 119.655 75.1234 121.003 76.4848C122.35 77.8461 124.178 78.611 126.083 78.611ZM158.417 64.0924C156.996 64.0924 155.606 64.5182 154.425 65.3158C153.243 66.1135 152.322 67.2472 151.778 68.5737C151.235 69.9002 151.092 71.3598 151.37 72.7679C151.647 74.1761 152.331 75.4695 153.336 76.4848C154.341 77.5 155.621 78.1914 157.015 78.4715C158.409 78.7516 159.853 78.6078 161.166 78.0584C162.479 77.5089 163.601 76.5785 164.391 75.3847C165.18 74.1909 165.602 72.7874 165.602 71.3517C165.602 69.4264 164.845 67.58 163.497 66.2186C162.15 64.8573 160.322 64.0924 158.417 64.0924Z" fill="#010101" style="fill:#010101;fill:color(display-p3 0.0039 0.0039 0.0039);fill-opacity:1;"/>
<path d="M75.9629 72.6383C72.6621 73.3114 70.5166 76.5866 71.1768 79.9524L71.4688 81.4281C72.1416 84.8845 73.3857 88.1726 75.125 91.163H56.8438C53.4795 91.163 50.75 93.9462 50.75 97.3767C50.75 99.7716 52.083 101.856 54.0381 102.891C52.6543 104.031 51.7656 105.778 51.7656 107.733C51.7656 110.762 53.8984 113.286 56.7041 113.83C56.1455 114.775 55.8281 115.875 55.8281 117.054C55.8281 119.811 57.5928 122.154 60.0303 122.957C59.9414 123.384 59.8906 123.837 59.8906 124.303C59.8906 127.733 62.6201 130.517 65.9844 130.517H78.3623C80.7744 130.517 83.123 129.792 85.1289 128.432L90.0166 125.105C93.4062 122.801 95.4375 118.918 95.4375 114.762V100.367C95.4375 96.587 93.749 93.0271 90.8672 90.6581L89.9277 89.8943C86.5635 87.1499 84.2656 83.2922 83.4277 78.9944L83.1357 77.5187C82.4756 74.1529 79.2637 71.9651 75.9629 72.6383ZM111.688 93.2342H103.562C101.315 93.2342 99.5 95.0854 99.5 97.3767V126.374C99.5 128.665 101.315 130.517 103.562 130.517H111.688C113.935 130.517 115.75 128.665 115.75 126.374V97.3767C115.75 95.0854 113.935 93.2342 111.688 93.2342Z" fill="#1A5F58" style="fill:#1A5F58;fill:color(display-p3 0.1020 0.3725 0.3451);fill-opacity:1;"/>
<path d="M236.132 68.6752C240.879 71.2609 243.25 72.5512 243.25 74.4841C243.25 76.417 240.879 77.7073 236.132 80.293L234.905 80.956C233.552 81.6955 232.878 82.0627 232.435 82.6339C231.991 83.2051 231.823 83.9191 231.494 85.3471L231.192 86.6425C230.032 91.661 229.447 94.1702 227.484 94.7669C225.52 95.3636 223.468 93.6551 219.373 90.2329L218.313 89.3455C217.149 88.3765 216.569 87.892 215.848 87.6727C215.128 87.4534 214.349 87.5248 212.798 87.6727L211.388 87.8053C205.921 88.3255 203.189 88.5805 201.973 87.0199C200.756 85.4593 201.868 83.1082 204.082 78.4111L204.657 77.1922C205.283 75.8611 205.597 75.193 205.597 74.4841C205.597 73.7752 205.283 73.1071 204.657 71.776L204.082 70.5571C201.863 65.8651 200.756 63.5089 201.973 61.9482C203.189 60.3876 205.921 60.6426 211.383 61.1628L212.798 61.2954C214.349 61.4433 215.128 61.5147 215.848 61.2954C216.569 61.0761 217.154 60.5916 218.313 59.6226L219.373 58.7352C223.468 55.3182 225.52 53.6046 227.484 54.2013C229.447 54.798 230.032 57.3072 231.192 62.3256L231.494 63.6211C231.823 65.0491 231.991 65.7631 232.435 66.3343C232.878 66.9055 233.552 67.2727 234.905 68.0071L236.132 68.6752ZM213.577 112.377C215.953 113.673 217.138 114.315 217.138 115.284C217.138 116.253 215.953 116.896 213.577 118.191L212.966 118.523C212.287 118.89 211.952 119.074 211.728 119.359C211.509 119.645 211.425 120.002 211.258 120.716L211.112 121.363C210.527 123.873 210.24 125.127 209.252 125.423C208.271 125.724 207.247 124.867 205.2 123.159L204.672 122.715C204.088 122.23 203.795 121.986 203.435 121.879C203.08 121.766 202.688 121.807 201.91 121.879L201.205 121.945C198.474 122.2 197.105 122.332 196.499 121.552C195.894 120.772 196.447 119.599 197.554 117.248L197.842 116.636C198.155 115.973 198.312 115.636 198.312 115.284C198.312 114.927 198.155 114.596 197.842 113.928L197.554 113.321C196.447 110.975 195.894 109.802 196.499 109.016C197.105 108.236 198.474 108.364 201.205 108.624L201.91 108.69C202.693 108.761 203.08 108.802 203.435 108.69C203.8 108.583 204.088 108.338 204.672 107.854L205.2 107.41C207.247 105.701 208.271 104.844 209.252 105.145C210.24 105.441 210.527 106.696 211.112 109.205L211.258 109.853C211.425 110.567 211.509 110.924 211.728 111.209C211.952 111.495 212.292 111.679 212.966 112.046L213.577 112.377ZM213.577 30.7769C215.953 32.0774 217.138 32.7149 217.138 33.6839C217.138 34.6529 215.953 35.2956 213.577 36.591L212.966 36.9225C212.287 37.2897 211.952 37.4733 211.728 37.7589C211.509 38.0445 211.425 38.4015 211.258 39.1155L211.112 39.7632C210.527 42.2724 210.24 43.527 209.252 43.8279C208.271 44.1237 207.247 43.2669 205.2 41.5584L204.672 41.1147C204.088 40.6302 203.795 40.3854 203.435 40.2783C203.08 40.1661 202.688 40.2069 201.91 40.2783L201.205 40.3446C198.474 40.5996 197.105 40.7322 196.499 39.9519C195.894 39.1716 196.447 37.9935 197.554 35.6475L197.842 35.0354C198.155 34.3724 198.312 34.0358 198.312 33.6839C198.312 33.3269 198.155 32.9954 197.842 32.3273L197.554 31.7204C196.447 29.3744 195.894 28.2014 196.499 27.416C197.105 26.6357 198.474 26.7632 201.205 27.0233L201.91 27.0896C202.693 27.161 203.08 27.2018 203.435 27.0896C203.8 26.9825 204.088 26.7377 204.672 26.2532L205.2 25.8095C207.247 24.101 208.271 23.2442 209.252 23.54C210.24 23.8409 210.527 25.0955 211.112 27.6047L211.258 28.2524C211.425 28.9664 211.509 29.3234 211.728 29.609C211.952 29.8946 212.292 30.0782 212.966 30.4454L213.577 30.7769Z" stroke="#1A5F58" style="stroke:#1A5F58;stroke:color(display-p3 0.1020 0.3725 0.3451);stroke-opacity:1;" stroke-width="6"/>
</g>
<defs>
<filter id="filter0_d_683_14895" x="30.75" y="0.480469" width="235.5" height="150.036" filterUnits="userSpaceOnUse" color-interpolation-filters="sRGB">
<feFlood flood-opacity="0" result="BackgroundImageFix"/>
<feColorMatrix in="SourceAlpha" type="matrix" values="0 0 0 0 0 0 0 0 0 0 0 0 0 0 0 0 0 0 127 0" result="hardAlpha"/>
<feOffset/>
<feGaussianBlur stdDeviation="10"/>
<feComposite in2="hardAlpha" operator="out"/>
<feColorMatrix type="matrix" values="0 0 0 0 0.101961 0 0 0 0 0.372549 0 0 0 0 0.345098 0 0 0 0.2 0"/>
<feBlend mode="normal" in2="BackgroundImageFix" result="effect1_dropShadow_683_14895"/>
<feBlend mode="normal" in="SourceGraphic" in2="effect1_dropShadow_683_14895" result="shape"/>
</filter>
</defs>
</svg>
